<svg width="16" height="17" viewBox="0 0 16 17" fill="none" xmlns="http://www.w3.org/2000/svg">
<path d="M13.3333 6.5H7.33333C6.59695 6.5 6 7.09695 6 7.83333V13.8333C6 14.5697 6.59695 15.1667 7.33333 15.1667H13.3333C14.0697 15.1667 14.6667 14.5697 14.6667 13.8333V7.83333C14.6667 7.09695 14.0697 6.5 13.3333 6.5Z" stroke="#495465" stroke-linecap="round" stroke-linejoin="round"/>
<path d="M3.33337 10.5H2.66671C2.31309 10.5 1.97395 10.3595 1.7239 10.1095C1.47385 9.85941 1.33337 9.52027 1.33337 9.16665V3.16665C1.33337 2.81302 1.47385 2.47389 1.7239 2.22384C1.97395 1.97379 2.31309 1.83331 2.66671 1.83331H8.66671C9.02033 1.83331 9.35947 1.97379 9.60952 2.22384C9.85956 2.47389 10 2.81302 10 3.16665V3.83331" stroke="#495465" stroke-linecap="round" stroke-linejoin="round"/>
</svg>
