<svg width="22" height="22" viewBox="0 0 22 22" fill="none" xmlns="http://www.w3.org/2000/svg">
<g id="Group">
<path id="Vector" fill-rule="evenodd" clip-rule="evenodd" d="M2 0C0.89543 0 0 0.89543 0 2V4C0 5.10457 0.89543 6 2 6H4C5.10457 6 6 5.10457 6 4V2C6 0.89543 5.10457 0 4 0H2ZM4 2H2V4H4V2Z" fill="#495465"/>
<path id="Vector_2" fill-rule="evenodd" clip-rule="evenodd" d="M2 8C0.89543 8 0 8.89543 0 10V12C0 13.1046 0.89543 14 2 14H4C5.10457 14 6 13.1046 6 12V10C6 8.89543 5.10457 8 4 8H2ZM4 10H2V12H4V10Z" fill="#495465"/>
<path id="Vector_3" fill-rule="evenodd" clip-rule="evenodd" d="M0 18C0 16.8954 0.89543 16 2 16H4C5.10457 16 6 16.8954 6 18V20C6 21.1046 5.10457 22 4 22H2C0.89543 22 0 21.1046 0 20V18ZM2 18H4V20H2V18Z" fill="#495465"/>
<path id="Vector_4" fill-rule="evenodd" clip-rule="evenodd" d="M10 0C8.89543 0 8 0.89543 8 2V4C8 5.10457 8.89543 6 10 6H12C13.1046 6 14 5.10457 14 4V2C14 0.89543 13.1046 0 12 0H10ZM12 2H10V4H12V2Z" fill="#495465"/>
<path id="Vector_5" fill-rule="evenodd" clip-rule="evenodd" d="M8 10C8 8.89543 8.89543 8 10 8H12C13.1046 8 14 8.89543 14 10V12C14 13.1046 13.1046 14 12 14H10C8.89543 14 8 13.1046 8 12V10ZM10 10H12V12H10V10Z" fill="#495465"/>
<path id="Vector_6" fill-rule="evenodd" clip-rule="evenodd" d="M10 16C8.89543 16 8 16.8954 8 18V20C8 21.1046 8.89543 22 10 22H12C13.1046 22 14 21.1046 14 20V18C14 16.8954 13.1046 16 12 16H10ZM12 18H10V20H12V18Z" fill="#495465"/>
<path id="Vector_7" fill-rule="evenodd" clip-rule="evenodd" d="M16 2C16 0.89543 16.8954 0 18 0H20C21.1046 0 22 0.89543 22 2V4C22 5.10457 21.1046 6 20 6H18C16.8954 6 16 5.10457 16 4V2ZM18 2H20V4H18V2Z" fill="#495465"/>
<path id="Vector_8" fill-rule="evenodd" clip-rule="evenodd" d="M18 8C16.8954 8 16 8.89543 16 10V12C16 13.1046 16.8954 14 18 14H20C21.1046 14 22 13.1046 22 12V10C22 8.89543 21.1046 8 20 8H18ZM20 10H18V12H20V10Z" fill="#495465"/>
<path id="Vector_9" fill-rule="evenodd" clip-rule="evenodd" d="M16 18C16 16.8954 16.8954 16 18 16H20C21.1046 16 22 16.8954 22 18V20C22 21.1046 21.1046 22 20 22H18C16.8954 22 16 21.1046 16 20V18ZM18 18H20V20H18V18Z" fill="#495465"/>
</g>
</svg>
