<svg width="16" height="16" viewBox="0 0 16 16" fill="none" xmlns="http://www.w3.org/2000/svg">
<g id="Group">
<path id="Vector" d="M7.99998 6C7.63178 6 7.33331 6.29847 7.33331 6.66667V10.3904L6.47139 9.52853C6.21105 9.26827 5.78893 9.26827 5.52859 9.52853C5.26822 9.78893 5.26822 10.211 5.52859 10.4714L7.52798 12.4709C7.78818 12.731 8.20991 12.7312 8.47031 12.4713L10.47 10.4758C10.7303 10.2155 10.7303 9.79333 10.47 9.53307C10.2096 9.27267 9.78758 9.27267 9.52718 9.53307L8.66665 10.3935V6.66667C8.66665 6.29847 8.36818 6 7.99998 6Z" fill="#495465"/>
<path id="Vector_2" fill-rule="evenodd" clip-rule="evenodd" d="M14 0.666664C15.1046 0.666664 16 1.5621 16 2.66666V5.33333C16 6.4379 15.1046 7.33333 14 7.33333H12.6667V13.3333C12.6667 14.4379 11.7713 15.3333 10.6667 15.3333H5.33333C4.22877 15.3333 3.33333 14.4379 3.33333 13.3333V7.33333H2C0.895433 7.33333 0 6.4379 0 5.33333V2.66666C0 1.5621 0.895433 0.666664 2 0.666664H14ZM14.6667 5.33333C14.6667 5.70152 14.3682 6 14 6H12.6667V4.66666H13.3333C13.7015 4.66666 14 4.36819 14 4C14 3.63181 13.7015 3.33333 13.3333 3.33333H2.66667C2.29848 3.33333 2 3.63181 2 4C2 4.36819 2.29848 4.66666 2.66667 4.66666H3.33333V6H2C1.63181 6 1.33333 5.70152 1.33333 5.33333V2.66666C1.33333 2.29848 1.63181 2 2 2H14C14.3682 2 14.6667 2.29848 14.6667 2.66666V5.33333ZM4.66667 4.66666V13.3333C4.66667 13.7015 4.96515 14 5.33333 14H10.6667C11.0349 14 11.3333 13.7015 11.3333 13.3333V4.66666H4.66667Z" fill="#495465"/>
</g>
</svg>
