<svg width="20" height="23" viewBox="0 0 20 23" fill="none" xmlns="http://www.w3.org/2000/svg">
<g id="Group">
<path id="Vector" fill-rule="evenodd" clip-rule="evenodd" d="M17 22.5H9C8.4477 22.5 8 22.0523 8 21.5C8 20.9477 8.4477 20.5 9 20.5H17C17.5523 20.5 18 20.0523 18 19.5V3.5C18 2.94772 17.5523 2.5 17 2.5H9C8.4477 2.5 8 2.05229 8 1.5C8 0.94772 8.4477 0.5 9 0.5H17C18.6569 0.5 20 1.84315 20 3.5V19.5C20 21.1569 18.6569 22.5 17 22.5Z" fill="#495465" fill-opacity="0.4"/>
<path id="Vector_2" fill-rule="evenodd" clip-rule="evenodd" d="M0.488616 12.8099C-0.162874 12.0581 -0.162874 10.9419 0.488626 10.1902L4.66533 5.37088C5.87787 3.97179 8.17671 4.82933 8.17671 6.68074V8.50001H14.1767C15.2813 8.50001 16.1767 9.39544 16.1767 10.5V12.5C16.1767 13.6046 15.2813 14.5 14.1767 14.5H8.17671V16.3193C8.17671 18.1707 5.87787 19.0282 4.66533 17.6291L0.488616 12.8099ZM2.56761 10.8451C2.24186 11.2209 2.24186 11.7791 2.56761 12.1549L6.17671 16.3193V14C6.17671 13.1716 6.84828 12.5 7.67671 12.5H14.1767V10.5H7.67671C6.84828 10.5 6.17671 9.8284 6.17671 9.00001V6.68074L2.56761 10.8451Z" fill="#495465" fill-opacity="0.4"/>
</g>
</svg>
