<svg width="16" height="16" viewBox="0 0 16 16" fill="none" xmlns="http://www.w3.org/2000/svg">
<path d="M7.33333 4.66667C7.33333 6.13943 6.13943 7.33333 4.66667 7.33333C3.19391 7.33333 2 6.13943 2 4.66667C2 3.19391 3.19391 2 4.66667 2C6.13943 2 7.33333 3.19391 7.33333 4.66667ZM3.3181 4.66667C3.3181 5.41146 3.92187 6.01523 4.66667 6.01523C5.41146 6.01523 6.01523 5.41146 6.01523 4.66667C6.01523 3.92187 5.41146 3.31811 4.66667 3.31811C3.92187 3.31811 3.3181 3.92187 3.3181 4.66667Z" fill="#495465"/>
<path fill-rule="evenodd" clip-rule="evenodd" d="M1.58106 9.49187C2.36245 8.92574 3.39832 8.66667 4.66665 8.66667C5.93497 8.66667 6.97085 8.92574 7.75225 9.49187C8.54585 10.0669 8.99425 10.8985 9.19665 11.8719C9.45405 13.1098 8.38051 14 7.33331 14H1.99998C0.952793 14 -0.120768 13.1098 0.136621 11.8719C0.339048 10.8985 0.78744 10.0669 1.58106 9.49187ZM2.36339 10.5716C1.89929 10.9079 1.5938 11.4135 1.44203 12.1434C1.41615 12.2679 1.45077 12.3819 1.5455 12.4815C1.64692 12.5883 1.81143 12.6667 1.99998 12.6667H7.33331C7.52185 12.6667 7.68638 12.5883 7.78778 12.4815C7.88251 12.3819 7.91711 12.2679 7.89125 12.1434C7.73951 11.4135 7.43398 10.9079 6.96991 10.5716C6.49357 10.2265 5.76788 10 4.66665 10C3.56541 10 2.83972 10.2265 2.36339 10.5716Z" fill="#495465"/>
<path d="M14 4.66667C14 6.13943 12.806 7.33333 11.3333 7.33333C9.86056 7.33333 8.66663 6.13943 8.66663 4.66667C8.66663 3.19391 9.86056 2 11.3333 2C12.806 2 14 3.19391 14 4.66667ZM9.98476 4.66667C9.98476 5.41146 10.5885 6.01523 11.3333 6.01523C12.0781 6.01523 12.6818 5.41146 12.6818 4.66667C12.6818 3.92187 12.0781 3.31811 11.3333 3.31811C10.5885 3.31811 9.98476 3.92187 9.98476 4.66667Z" fill="#495465"/>
<path d="M9.69069 8.84594C9.28975 8.94434 9.14982 9.41121 9.37642 9.75627L9.40495 9.79967C9.57282 10.0553 9.89262 10.1593 10.1927 10.1001C10.5191 10.0356 10.8967 10 11.3333 10C12.4346 10 13.1602 10.2265 13.6366 10.5716C14.1007 10.9079 14.4062 11.4135 14.5579 12.1434C14.5838 12.2679 14.5492 12.3819 14.4544 12.4815C14.353 12.5883 14.1885 12.6667 14 12.6667H10.6666C10.2985 12.6667 9.99995 12.9651 9.99995 13.3333C9.99995 13.7015 10.2985 14 10.6666 14H14C15.0472 14 16.1207 13.1098 15.8634 11.8719C15.6609 10.8985 15.2125 10.0669 14.4189 9.49187C13.6375 8.92574 12.6016 8.66667 11.3333 8.66667C10.7329 8.66667 10.1846 8.72474 9.69069 8.84594Z" fill="#495465"/>
</svg>
