<svg width="16" height="16" viewBox="0 0 16 16" fill="none" xmlns="http://www.w3.org/2000/svg">
<g id="search icon">
<g id="search icon_2">
<path id="search" fill-rule="evenodd" clip-rule="evenodd" d="M6.65735 0C2.98058 0 0 2.98058 0 6.65731C0 10.334 2.98058 13.3146 6.65731 13.3146C8.27409 13.3146 9.75627 12.7383 10.9096 11.7798L14.9495 15.8198L14.9596 15.8297C15.2007 16.0601 15.5828 16.0568 15.8198 15.8198C16.0601 15.5795 16.0601 15.1898 15.8198 14.9495L11.7799 10.9095C12.7383 9.75623 13.3146 8.27407 13.3146 6.65731C13.3144 2.98066 10.334 0.000234023 6.65735 0ZM6.65733 1.23079C9.65427 1.23099 12.0837 3.66044 12.0839 6.65737C12.0839 9.65433 9.65437 12.0839 6.65737 12.0839C3.66038 12.0839 1.23083 9.65433 1.23083 6.65733C1.23083 3.66034 3.66038 1.23079 6.65733 1.23079Z" fill="#495465"/>
</g>
<path id="search_2" fill-rule="evenodd" clip-rule="evenodd" d="M6.65735 0C2.98058 0 0 2.98058 0 6.65731C0 10.334 2.98058 13.3146 6.65731 13.3146C8.27409 13.3146 9.75627 12.7383 10.9096 11.7798L14.9495 15.8198L14.9596 15.8297C15.2007 16.0601 15.5828 16.0568 15.8198 15.8198C16.0601 15.5795 16.0601 15.1898 15.8198 14.9495L11.7799 10.9095C12.7383 9.75623 13.3146 8.27407 13.3146 6.65731C13.3144 2.98066 10.334 0.000234023 6.65735 0ZM6.65733 1.23079C9.65427 1.23099 12.0837 3.66044 12.0839 6.65737C12.0839 9.65433 9.65437 12.0839 6.65737 12.0839C3.66038 12.0839 1.23083 9.65433 1.23083 6.65733C1.23083 3.66034 3.66038 1.23079 6.65733 1.23079Z" fill="#495465"/>
</g>
</svg>
