<svg xmlns="http://www.w3.org/2000/svg" width="16" height="16" viewBox="0 0 16 16" fill="none">
<path fill-rule="evenodd" clip-rule="evenodd" d="M2.39961 4.14942C2.24135 3.21356 3.12003 2.43092 4.04873 2.68056L4.75187 2.86957C5.30992 3.01958 5.90205 2.79395 6.2126 2.31296L6.88655 1.26912C7.40515 0.465855 8.59489 0.465853 9.11349 1.26912L9.78742 2.31296C10.098 2.79395 10.6901 3.01958 11.2482 2.86957L11.9513 2.68056C12.88 2.43092 13.7587 3.21356 13.6004 4.14942L13.427 5.1751C13.3379 5.70224 13.5849 6.22947 14.0498 6.50442L14.6926 6.88454C15.547 7.3898 15.547 8.6102 14.6926 9.11547L14.0498 9.4956C13.5849 9.77054 13.3379 10.2978 13.427 10.8249L13.6004 11.8506C13.7587 12.7865 12.88 13.5691 11.9513 13.3195L11.2482 13.1305C10.6901 12.9804 10.098 13.2061 9.78742 13.6871L9.11349 14.7309C8.59489 15.5341 7.40515 15.5341 6.88655 14.7309L6.2126 13.6871C5.90205 13.2061 5.30992 12.9804 4.75187 13.1305L4.04873 13.3195C3.12003 13.5691 2.24135 12.7865 2.39961 11.8506L2.57305 10.8249C2.66218 10.2978 2.41516 9.77054 1.95023 9.4956L1.30746 9.11547C0.453095 8.6102 0.453097 7.3898 1.30746 6.88454L1.95023 6.50442C2.41516 6.22947 2.66218 5.70224 2.57305 5.1751L2.39961 4.14942ZM6.0203 4.09748H4.04059V6.04874L2.06087 8L4.04059 9.95127V11.9025H6.0203L8.00002 13.8538L9.97975 11.9025H11.9595V9.95127L13.9392 8L11.9595 6.04874V4.09748H9.97975L8.00002 2.14621L6.0203 4.09748Z" fill="#495465"/>
<path d="M10.9677 8C10.9677 9.61647 9.63818 10.9269 7.99812 10.9269C6.35809 10.9269 5.02856 9.61647 5.02856 8C5.02856 6.38352 6.35809 5.0731 7.99812 5.0731C9.63818 5.0731 10.9677 6.38352 10.9677 8ZM6.34647 8C6.34647 8.89907 7.08592 9.62794 7.99812 9.62794C8.91032 9.62794 9.64978 8.89907 9.64978 8C9.64978 7.10094 8.91032 6.37207 7.99812 6.37207C7.08592 6.37207 6.34647 7.10094 6.34647 8Z" fill="#495465"/>
</svg>