<svg width="16" height="16" viewBox="0 0 16 16" fill="none" xmlns="http://www.w3.org/2000/svg">
<g id="Group">
<path id="Vector" d="M7.12769 0.195391C6.86735 -0.0651305 6.44523 -0.0651304 6.18489 0.195391L4.18763 2.19397C3.92727 2.4545 3.92729 2.87691 4.18765 3.13742L6.18934 5.14023C6.44969 5.40075 6.87182 5.40075 7.13215 5.14023C7.39249 4.87971 7.39249 4.45732 7.13215 4.1968L6.26088 3.32495H11.3334C11.7016 3.32495 12 3.02628 12 2.65785C12 2.28941 11.7016 1.99074 11.3334 1.99074L6.27635 1.99073L7.12769 1.13883C7.38802 0.8783 7.38802 0.455913 7.12769 0.195391Z" fill="#495465"/>
<path id="Vector_2" fill-rule="evenodd" clip-rule="evenodd" d="M7.99998 13.9987C6.52722 13.9987 5.33331 12.804 5.33331 11.3303C5.33331 9.85654 6.52722 8.6618 7.99998 8.6618C9.47271 8.6618 10.6666 9.85654 10.6666 11.3303C10.6666 12.804 9.47271 13.9987 7.99998 13.9987ZM7.99998 12.7289C8.77198 12.7289 9.39778 12.1027 9.39778 11.3303C9.39778 10.5577 8.77198 9.93154 7.99998 9.93154C7.22798 9.93154 6.60219 10.5577 6.60219 11.3303C6.60219 12.1027 7.22798 12.7289 7.99998 12.7289Z" fill="#495465"/>
<path id="Vector_3" d="M11.3333 11.3303C11.3333 11.6987 11.6318 11.9973 12 11.9973C12.3682 11.9973 12.6666 11.6987 12.6666 11.3303C12.6666 10.9618 12.3682 10.6631 12 10.6631C11.6318 10.6631 11.3333 10.9618 11.3333 11.3303Z" fill="#495465"/>
<path id="Vector_4" d="M3.33331 11.3303C3.33331 11.6987 3.63179 11.9973 3.99998 11.9973C4.36817 11.9973 4.66665 11.6987 4.66665 11.3303C4.66665 10.9618 4.36817 10.6631 3.99998 10.6631C3.63179 10.6631 3.33331 10.9618 3.33331 11.3303Z" fill="#495465"/>
<path id="Vector_5" fill-rule="evenodd" clip-rule="evenodd" d="M2 6.66049C0.895433 6.66049 0 7.55653 0 8.6618V13.9987C0 15.104 0.895433 16 2 16H14C15.1046 16 16 15.104 16 13.9987V8.6618C16 7.55653 15.1046 6.66049 14 6.66049H2ZM13.3333 7.99473H2.66667C2.66667 8.16993 2.63218 8.3434 2.56517 8.50527C2.49817 8.66713 2.39995 8.81427 2.27614 8.93813C2.15233 9.062 2.00535 9.16033 1.84358 9.22733C1.68181 9.2944 1.50843 9.32893 1.33333 9.32893V13.3316C1.50843 13.3316 1.68181 13.3661 1.84358 13.4331C2.00535 13.5002 2.15233 13.5985 2.27614 13.7223C2.39995 13.8463 2.49817 13.9933 2.56517 14.1552C2.63218 14.3171 2.66667 14.4906 2.66667 14.6658H13.3333C13.3333 14.4906 13.3678 14.3171 13.4348 14.1552C13.5019 13.9933 13.6001 13.8463 13.7239 13.7223C13.8477 13.5985 13.9947 13.5002 14.1564 13.4331C14.3182 13.3661 14.4916 13.3316 14.6667 13.3316V9.32893C14.4916 9.32893 14.3182 9.2944 14.1564 9.22733C13.9947 9.16033 13.8477 9.062 13.7239 8.93813C13.6001 8.81427 13.5019 8.66713 13.4348 8.50527C13.3678 8.3434 13.3333 8.16993 13.3333 7.99473Z" fill="#495465"/>
</g>
</svg>
