<svg width="16" height="16" viewBox="0 0 16 16" fill="none" xmlns="http://www.w3.org/2000/svg">
<g id="Icons" clip-path="url(#clip0_1138_842)">
<path id="Vector" fill-rule="evenodd" clip-rule="evenodd" d="M4.00008 3.33329V2.66663C4.00008 1.56206 4.89551 0.666626 6.00008 0.666626H10.0001C11.1047 0.666626 12.0001 1.56206 12.0001 2.66663V3.33329H13.3334C14.438 3.33329 15.3334 4.22873 15.3334 5.33329V13.3333C15.3334 14.4379 14.438 15.3333 13.3334 15.3333H2.66675C1.56218 15.3333 0.666748 14.4379 0.666748 13.3333V5.33329C0.666748 4.22873 1.56218 3.33329 2.66675 3.33329H4.00008ZM5.33342 2.66663C5.33342 2.29844 5.6319 1.99996 6.00008 1.99996H10.0001C10.3683 1.99996 10.6667 2.29844 10.6667 2.66663V3.33329H5.33342V2.66663ZM13.2547 4.66663H2.74543L4.22784 7.63143C4.34077 7.85729 4.57161 7.99996 4.82413 7.99996H7.33342C7.33342 7.63176 7.63188 7.33329 8.00008 7.33329C8.36828 7.33329 8.66675 7.63176 8.66675 7.99996H11.176C11.4285 7.99996 11.6594 7.85729 11.7723 7.63143L13.2547 4.66663ZM7.33342 9.33329H4.82413C4.06658 9.33329 3.37405 8.90529 3.03527 8.22769L2.00008 6.15734V13.3333C2.00008 13.7015 2.29856 14 2.66675 14H13.3334C13.7016 14 14.0001 13.7015 14.0001 13.3333V6.15734L12.9649 8.22769C12.6261 8.90529 11.9335 9.33329 11.176 9.33329H8.66675C8.66675 9.70149 8.36828 9.99996 8.00008 9.99996C7.63188 9.99996 7.33342 9.70149 7.33342 9.33329Z" fill="#495465"/>
</g>
<defs>
<clipPath id="clip0_1138_842">
<rect width="16" height="16" fill="white"/>
</clipPath>
</defs>
</svg>
