<svg width="16" height="16" viewBox="0 0 16 16" fill="none" xmlns="http://www.w3.org/2000/svg">
<g clip-path="url(#clip0_388_7547)">
<path d="M14.6666 7.38667V8C14.6658 9.43762 14.2003 10.8365 13.3395 11.9879C12.4787 13.1393 11.2688 13.9817 9.89016 14.3893C8.51154 14.7969 7.03809 14.7479 5.68957 14.2497C4.34104 13.7515 3.18969 12.8307 2.40723 11.6247C1.62476 10.4187 1.25311 8.99204 1.3477 7.55754C1.44229 6.12304 1.99806 4.75755 2.93211 3.66472C3.86615 2.57188 5.12844 1.81025 6.53071 1.49343C7.93298 1.17661 9.4001 1.32156 10.7133 1.90667" stroke="#495465" stroke-linecap="round" stroke-linejoin="round"/>
<path d="M14.6667 2.66667L8 9.34L6 7.34" stroke="#495465" stroke-linecap="round" stroke-linejoin="round"/>
</g>
<defs>
<clipPath id="clip0_388_7547">
<rect width="16" height="16" fill="white"/>
</clipPath>
</defs>
</svg>
